<svg width="178" height="34" fill="none" xmlns="http://www.w3.org/2000/svg">
  <path d="M41.093 13.086c.651 0 .977.326.977.978v12.959c0 .651-.326.977-.977.977h-2.319c-.651 0-.977-.27-.977-.81v-.81c-.987 1.303-2.42 1.955-4.301 1.955-1.527 0-2.728-.503-3.603-1.508s-1.312-2.28-1.312-3.826v-8.937c0-.652.325-.978.977-.978h2.346c.652 0 .978.326.978.978v7.931c0 1.695.716 2.542 2.15 2.542.82 0 1.48-.26 1.983-.782.521-.521.782-1.248.782-2.179v-7.512c0-.652.326-.978.978-.978h2.318ZM46.17 28c-.651 0-.977-.326-.977-.977v-12.96c0-.651.325-.977.977-.977h2.346c.652 0 .978.27.978.81v.81c1.024-1.303 2.448-1.955 4.273-1.955 1.545 0 2.746.503 3.603 1.508.875 1.006 1.312 2.281 1.312 3.826v8.938c0 .651-.326.977-.977.977H55.36c-.652 0-.978-.326-.978-.977v-7.96c0-1.676-.717-2.514-2.15-2.514-.8 0-1.462.261-1.983.782-.503.522-.754 1.248-.754 2.179v7.512c0 .652-.326.978-.978.978h-2.346Zm16.501 0c-.652 0-.977-.326-.977-.977V9.037c0-.652.325-.978.977-.978h2.346c.652 0 .978.326.978.978v17.986c0 .651-.326.977-.978.977h-2.346Zm21.048-7.429c0 2.327-.708 4.208-2.123 5.642-1.396 1.415-3.268 2.122-5.614 2.122s-4.226-.707-5.641-2.122c-1.397-1.434-2.095-3.315-2.095-5.642 0-2.346.698-4.236 2.095-5.67 1.415-1.433 3.295-2.15 5.641-2.15s4.218.717 5.614 2.15c1.415 1.434 2.123 3.324 2.123 5.67Zm-5.363 3.044c.559-.782.838-1.806.838-3.072s-.28-2.28-.838-3.044c-.558-.782-1.35-1.173-2.374-1.173-1.005 0-1.787.39-2.346 1.173-.558.763-.837 1.778-.837 3.044s.279 2.29.837 3.072c.559.764 1.341 1.145 2.346 1.145 1.024 0 1.816-.381 2.374-1.145Zm18.475-5.753c-.484.317-.93.223-1.34-.28-.67-.763-1.508-1.144-2.514-1.144-1.042 0-1.861.381-2.457 1.145-.596.744-.894 1.722-.894 2.932 0 1.248.307 2.253.922 3.016.614.745 1.452 1.118 2.513 1.118.987 0 1.871-.373 2.653-1.118.447-.484.903-.53 1.369-.14l1.313 1.118c.502.447.549.903.14 1.368-1.509 1.639-3.445 2.458-5.81 2.458-2.29 0-4.133-.726-5.53-2.178-1.396-1.471-2.094-3.333-2.094-5.586s.698-4.115 2.094-5.586c1.397-1.49 3.212-2.234 5.446-2.234 2.477 0 4.45.959 5.921 2.877.373.521.27.968-.307 1.34l-1.425.894Zm13.434-4.217a1.508 1.508 0 0 1 1.201-.559h2.681c.41 0 .67.121.782.363.112.242.028.521-.251.838l-4.218 4.636 5.139 7.904c.205.335.242.614.112.838-.112.223-.363.335-.754.335h-2.877c-.521 0-.912-.223-1.173-.67l-3.351-5.558-2.151 2.43v2.82c0 .652-.325.978-.977.978h-2.346c-.652 0-.978-.326-.978-.977V9.037c0-.652.326-.978.978-.978h2.346c.652 0 .977.326.977.978v10.277l4.86-5.67Zm17.166 13.014c.149.634-.037 1.052-.559 1.257a8.944 8.944 0 0 1-2.737.42c-1.582 0-2.774-.373-3.575-1.118-.8-.763-1.201-1.974-1.201-3.63v-7.123h-1.703c-.652 0-.978-.325-.978-.977v-1.424c0-.652.326-.978.978-.978h1.703v-4.05c0-.651.326-.977.978-.977h2.318c.652 0 .977.326.977.978v4.05h2.57c.652 0 .977.325.977.977v1.424c0 .652-.325.977-.977.977h-2.57v6.424c0 1.21.55 1.815 1.648 1.815.168 0 .363-.018.587-.055.633-.13 1.024.065 1.173.586l.391 1.424Zm7.357-.977c0 .726-.27 1.36-.81 1.9a2.553 2.553 0 0 1-1.871.781c-.726 0-1.359-.26-1.899-.782-.522-.54-.782-1.173-.782-1.9 0-.744.26-1.377.782-1.898.54-.521 1.173-.782 1.899-.782s1.35.26 1.871.782c.54.521.81 1.154.81 1.899ZM147.403 28c-.652 0-.978-.326-.978-.977v-7.988c0-1.657-.689-2.486-2.066-2.486-.782 0-1.406.252-1.872.754-.446.503-.67 1.22-.67 2.15v7.57c0 .651-.326.977-.977.977h-2.346c-.652 0-.978-.326-.978-.977v-12.96c0-.651.326-.977.978-.977h2.346c.651 0 .977.26.977.782v.81c.968-1.285 2.337-1.927 4.106-1.927 1.992 0 3.342.82 4.049 2.458 1.136-1.639 2.719-2.458 4.748-2.458 1.564 0 2.765.493 3.603 1.48.856.987 1.285 2.253 1.285 3.798v8.994c0 .651-.326.977-.978.977h-2.318c-.652 0-.977-.326-.977-.977v-7.988c0-1.657-.699-2.486-2.095-2.486-.763 0-1.378.252-1.843.754-.466.503-.699 1.22-.699 2.15v7.57c0 .651-.325.977-.977.977h-2.318Zm16.433-1.815c-1.377-1.434-2.066-3.296-2.066-5.586 0-2.29.67-4.17 2.011-5.642 1.359-1.47 3.193-2.206 5.502-2.206 2.252 0 4.021.689 5.306 2.067 1.285 1.377 1.927 3.174 1.927 5.39v.503c-.056.633-.4.95-1.033.95h-9.105c.019.949.344 1.675.977 2.178.633.484 1.443.726 2.43.726 1.173 0 2.16-.345 2.961-1.034.502-.428.959-.437 1.368-.027l1.257 1.228c.503.466.512.922.028 1.369-1.508 1.49-3.463 2.234-5.865 2.234-2.421 0-4.32-.717-5.698-2.15Zm8.463-7.43c-.075-.893-.373-1.582-.894-2.066-.521-.503-1.192-.754-2.011-.754-.856 0-1.554.26-2.094.782-.54.503-.848 1.182-.922 2.039h5.921Z" fill="#000"/>
  <rect y="14.571" width="20.643" height="15.786" rx="4.857" fill="#000"/>
  <path d="M4.857 11.945v-1.624a5.464 5.464 0 0 1 5.465-5.464v0a5.464 5.464 0 0 1 5.464 5.464v5.465" stroke="#000" stroke-width="3.036" stroke-linecap="round" stroke-linejoin="round"/>
</svg>
